# xmcd CD database file
#
# Track frame offsets:
#	150
#	20888
#	43575
#	66366
#	84549
#	118779
#	138067
#	154143
#	174564
#	186973
#	211035
#	231417
#	252844
#	279314
#	295175
#
# Disc length: 4215 seconds
#
# Revision: 0
# Processed by: cddbd v1.5.2PL0 Copyright (c) Steve Scherf et al.
# Submitted via: CDex 1.70beta2
#
DISCID=d910750f
DTITLE=Bluestream Jazzband - The Livingroom Sessions Vol.2: "Lover Man"
DYEAR=2009
DGENRE=Jazz
TTITLE0=The Jeep Is Jumpin'
TTITLE1=Big Butter And Egg Man
TTITLE2=Mercy, Mercy, Mercy...
TTITLE3=Mean To Me
TTITLE4=Lover Man
TTITLE5=Dogging The "Dark White" And Peace For Charly
TTITLE6=East St: Lois Toodle-00
TTITLE7=Kandee
TTITLE8=A Flower Is A Lovesome Thing
TTITLE9=Honeysuckle Rose
TTITLE10=Frankie And Johnny Blues
TTITLE11=Johnny Come Lately
TTITLE12=Solitude
TTITLE13=Ole Miss
TTITLE14=Blue Pepper
EXTD=YEAR: 2009
EXTT0=
EXTT1=
EXTT2=
EXTT3=
EXTT4=
EXTT5=
EXTT6=
EXTT7=
EXTT8=
EXTT9=
EXTT10=
EXTT11=
EXTT12=
EXTT13=
EXTT14=
PLAYORDER=
